<svg width="50" height="50" viewBox="0 0 50 50" fill="none" xmlns="http://www.w3.org/2000/svg">
<path d="M28.8128 39.5833C28.5016 39.5844 28.194 39.5157 27.9128 39.3823C27.6316 39.2489 27.3839 39.0542 27.1878 38.8125L17.1253 26.3125C16.8189 25.9397 16.6514 25.4721 16.6514 24.9896C16.6514 24.507 16.8189 24.0394 17.1253 23.6667L27.542 11.1667C27.8956 10.7412 28.4037 10.4737 28.9546 10.4229C29.5055 10.3721 30.054 10.5422 30.4795 10.8958C30.9049 11.2495 31.1725 11.7576 31.2233 12.3085C31.274 12.8594 31.1039 13.4079 30.7503 13.8333L21.4378 25L30.4378 36.1667C30.6926 36.4725 30.8544 36.8448 30.9041 37.2397C30.9539 37.6346 30.8895 38.0355 30.7185 38.395C30.5476 38.7544 30.2772 39.0573 29.9395 39.2679C29.6018 39.4785 29.2108 39.588 28.8128 39.5833Z" fill="#578CB5"/>
</svg>
