<svg width="102" height="50" viewBox="0 0 102 50" fill="none" xmlns="http://www.w3.org/2000/svg">
<path d="M28.8126 39.5833C28.5013 39.5844 28.1938 39.5157 27.9126 39.3823C27.6314 39.2489 27.3836 39.0542 27.1876 38.8125L17.1251 26.3125C16.8186 25.9397 16.6511 25.4721 16.6511 24.9896C16.6511 24.507 16.8186 24.0394 17.1251 23.6667L27.5417 11.1667C27.8953 10.7412 28.4035 10.4737 28.9544 10.4229C29.5053 10.3721 30.0538 10.5422 30.4792 10.8958C30.9047 11.2495 31.1722 11.7576 31.223 12.3085C31.2738 12.8594 31.1037 13.4079 30.7501 13.8333L21.4376 25L30.4376 36.1667C30.6923 36.4725 30.8541 36.8448 30.9039 37.2397C30.9536 37.6346 30.8892 38.0355 30.7183 38.395C30.5473 38.7544 30.277 39.0573 29.9393 39.2679C29.6015 39.4785 29.2105 39.588 28.8126 39.5833Z" fill="#578CB5"/>
<path d="M53.8672 15.75V24.832C54.1406 24.4727 54.4375 24.1406 54.7578 23.8359C55.0781 23.5312 55.4219 23.2656 55.7891 23.0391C56.1641 22.8125 56.5664 22.6367 56.9961 22.5117C57.4258 22.3789 57.8867 22.3125 58.3789 22.3125C58.9727 22.3125 59.5156 22.457 60.0078 22.7461C60.5 23.0352 60.9258 23.4414 61.2852 23.9648C61.6445 24.4805 61.9219 25.0977 62.1172 25.8164C62.3203 26.5352 62.4219 27.3203 62.4219 28.1719C62.4219 29.1797 62.2852 30.0898 62.0117 30.9023C61.7461 31.7148 61.3672 32.4102 60.875 32.9883C60.3828 33.5664 59.7852 34.0117 59.082 34.3242C58.3867 34.6367 57.6055 34.793 56.7383 34.793C56.2617 34.793 55.8008 34.7578 55.3555 34.6875C54.9102 34.625 54.4766 34.543 54.0547 34.4414C53.6406 34.332 53.2383 34.2188 52.8477 34.1016C52.457 33.9766 52.0742 33.8555 51.6992 33.7383V19.875C51.6992 19.375 51.6914 18.875 51.6758 18.375C51.668 17.8672 51.6523 17.3867 51.6289 16.9336C51.6055 16.4727 51.5703 16.0781 51.5234 15.75H53.8672ZM53.8672 32.332C54.1562 32.4492 54.418 32.5508 54.6523 32.6367C54.8945 32.7148 55.1289 32.7812 55.3555 32.8359C55.582 32.8828 55.8047 32.918 56.0234 32.9414C56.25 32.9648 56.4883 32.9766 56.7383 32.9766C57.2539 32.9766 57.7305 32.8711 58.168 32.6602C58.6055 32.4492 58.9805 32.1523 59.293 31.7695C59.6133 31.3867 59.8633 30.9258 60.043 30.3867C60.2227 29.8398 60.3125 29.2383 60.3125 28.582C60.3125 27.9336 60.2539 27.3477 60.1367 26.8242C60.0195 26.3008 59.8477 25.8594 59.6211 25.5C59.4023 25.1328 59.1289 24.8516 58.8008 24.6562C58.4727 24.4609 58.0977 24.3633 57.6758 24.3633C57.3086 24.3633 56.9414 24.4453 56.5742 24.6094C56.207 24.7656 55.8555 24.9883 55.5195 25.2773C55.1914 25.5664 54.8828 25.9141 54.5938 26.3203C54.3047 26.7188 54.0625 27.1602 53.8672 27.6445V32.332ZM72.9805 24.3984C72.8867 24.375 72.7812 24.3516 72.6641 24.3281C72.5469 24.3047 72.4062 24.2812 72.2422 24.2578C72.0859 24.2344 71.8984 24.2188 71.6797 24.2109C71.4688 24.1953 71.2188 24.1875 70.9297 24.1875C70.1641 24.1875 69.5234 24.3438 69.0078 24.6562C68.5 24.9609 68.0938 25.3711 67.7891 25.8867C67.4844 26.3945 67.2656 26.9805 67.1328 27.6445C67.0078 28.3086 66.9453 28.9922 66.9453 29.6953C66.9453 30.1484 66.9883 30.5664 67.0742 30.9492C67.168 31.3242 67.293 31.6523 67.4492 31.9336C67.6055 32.207 67.7852 32.4219 67.9883 32.5781C68.1914 32.7266 68.4102 32.8008 68.6445 32.8008C68.9883 32.8008 69.332 32.668 69.6758 32.4023C70.0273 32.1367 70.3633 31.7969 70.6836 31.3828C71.0039 30.9609 71.3047 30.4922 71.5859 29.9766C71.8672 29.4531 72.1094 28.9375 72.3125 28.4297C72.5234 27.9141 72.6875 27.4297 72.8047 26.9766C72.9219 26.5234 72.9805 26.1602 72.9805 25.8867V24.3984ZM73.8594 34.5C73.7734 34.3125 73.6953 34.0547 73.625 33.7266C73.5625 33.3984 73.5078 33.0508 73.4609 32.6836C73.4219 32.3086 73.3906 31.9375 73.3672 31.5703C73.3438 31.2031 73.332 30.8906 73.332 30.6328V29.6953C73.0977 30.3047 72.8164 30.9141 72.4883 31.5234C72.168 32.125 71.7969 32.668 71.375 33.1523C70.9609 33.6367 70.4961 34.0312 69.9805 34.3359C69.4648 34.6406 68.9023 34.793 68.293 34.793C67.8008 34.793 67.3398 34.6836 66.9102 34.4648C66.4805 34.2461 66.1055 33.9219 65.7852 33.4922C65.4727 33.0625 65.2266 32.5312 65.0469 31.8984C64.8672 31.2578 64.7773 30.5234 64.7773 29.6953C64.7773 28.7656 64.9023 27.8594 65.1523 26.9766C65.4023 26.0859 65.7852 25.2969 66.3008 24.6094C66.8164 23.9141 67.4727 23.3594 68.2695 22.9453C69.0664 22.5234 70.0117 22.3125 71.1055 22.3125C71.8633 22.3125 72.5781 22.3633 73.25 22.4648C73.9219 22.5586 74.5547 22.6836 75.1484 22.8398V28.2891C75.1484 29.7656 75.2188 31.0078 75.3594 32.0156C75.5 33.0156 75.6836 33.8438 75.9102 34.5H73.8594ZM87.8633 33.5039C87.5664 33.7305 87.2695 33.9258 86.9727 34.0898C86.6836 34.2461 86.3789 34.3789 86.0586 34.4883C85.7383 34.5898 85.3945 34.6641 85.0273 34.7109C84.6602 34.7656 84.2578 34.793 83.8203 34.793C83.0312 34.793 82.293 34.6562 81.6055 34.3828C80.918 34.1016 80.3164 33.6992 79.8008 33.1758C79.2852 32.6523 78.8789 32.0195 78.582 31.2773C78.2852 30.5352 78.1367 29.6953 78.1367 28.7578C78.1367 27.875 78.2773 27.043 78.5586 26.2617C78.8477 25.4805 79.2539 24.7969 79.7773 24.2109C80.3086 23.625 80.9492 23.1641 81.6992 22.8281C82.457 22.4844 83.3008 22.3125 84.2305 22.3125C85.0117 22.3125 85.6836 22.4062 86.2461 22.5938C86.8164 22.7734 87.3164 23.0117 87.7461 23.3086L87.3359 25.418C86.8047 25.0273 86.2773 24.7344 85.7539 24.5391C85.2305 24.3438 84.6641 24.2461 84.0547 24.2461C83.5312 24.2461 83.043 24.3477 82.5898 24.5508C82.1445 24.7461 81.7539 25.0312 81.418 25.4062C81.0898 25.7812 80.832 26.2422 80.6445 26.7891C80.457 27.3359 80.3633 27.9531 80.3633 28.6406C80.3633 29.2734 80.4492 29.8477 80.6211 30.3633C80.793 30.8789 81.0391 31.3242 81.3594 31.6992C81.6797 32.0664 82.0664 32.3516 82.5195 32.5547C82.9727 32.7578 83.4844 32.8594 84.0547 32.8594C84.7656 32.8594 85.4102 32.7383 85.9883 32.4961C86.5664 32.2539 87.1133 31.9062 87.6289 31.4531L87.8633 33.5039ZM90.6758 34.5V21.2578C90.6758 19.9922 90.668 18.8867 90.6523 17.9414C90.6367 16.9883 90.5859 16.2578 90.5 15.75H92.8438V27.457L97.5898 22.5469H100.52L94.7188 27.7852L100.871 34.5H98L92.8438 28.4062V34.5H90.6758Z" fill="#578CB5"/>
</svg>
