<svg width="41" height="40" viewBox="0 0 41 40" fill="none" xmlns="http://www.w3.org/2000/svg">
<g clip-path="url(#clip0)">
<path d="M4.85184 4.82758C2.56629 4.82758 0.713867 6.67999 0.713867 8.96548C0.713867 11.251 2.56629 13.1035 4.85184 13.1035C7.13733 13.1035 8.98975 11.251 8.98975 8.96548C8.98975 6.67993 7.13733 4.82758 4.85184 4.82758ZM4.85184 15.862C2.56629 15.862 0.713867 17.7145 0.713867 20C0.713867 22.2855 2.56629 24.138 4.85184 24.138C7.13733 24.138 8.98975 22.2855 8.98975 20C8.98975 17.7145 7.13733 15.862 4.85184 15.862ZM4.85184 26.8966C2.56629 26.8966 0.713867 28.7489 0.713867 31.0344C0.713867 33.32 2.56629 35.1724 4.85184 35.1724C7.13733 35.1724 8.98975 33.32 8.98975 31.0344C8.98975 28.7489 7.13733 26.8966 4.85184 26.8966ZM15.8863 11.7241H37.9552C39.4794 11.7241 40.7139 10.4896 40.7139 8.96548C40.7139 7.44137 39.4794 6.20686 37.9552 6.20686H15.8863C14.3622 6.20686 13.1277 7.44137 13.1277 8.96548C13.1277 10.4896 14.3622 11.7241 15.8863 11.7241ZM37.9552 17.2414H15.8863C14.3622 17.2414 13.1277 18.4759 13.1277 20C13.1277 21.5241 14.3622 22.7586 15.8863 22.7586H37.9552C39.4794 22.7586 40.7139 21.5241 40.7139 20C40.7139 18.4759 39.4794 17.2414 37.9552 17.2414ZM37.9552 28.2759H15.8863C14.3622 28.2759 13.1277 29.5103 13.1277 31.0344C13.1277 32.5585 14.3622 33.7931 15.8863 33.7931H37.9552C39.4794 33.7931 40.7139 32.5585 40.7139 31.0344C40.7139 29.5103 39.4794 28.2759 37.9552 28.2759Z" fill="#578CB5"/>
</g>
<defs>
<clipPath id="clip0">
<rect width="40" height="40" fill="white" transform="translate(0.713867)"/>
</clipPath>
</defs>
</svg>
