<svg width="29" height="29" viewBox="0 0 29 29" fill="none" xmlns="http://www.w3.org/2000/svg">
<path d="M14.5 1.8125C11.1476 1.85295 7.94396 3.20265 5.5733 5.5733C3.20265 7.94396 1.85295 11.1476 1.8125 14.5C1.85295 17.8524 3.20265 21.056 5.5733 23.4267C7.94396 25.7974 11.1476 27.1471 14.5 27.1875C17.8524 27.1471 21.056 25.7974 23.4267 23.4267C25.7974 21.056 27.1471 17.8524 27.1875 14.5C27.1471 11.1476 25.7974 7.94396 23.4267 5.5733C21.056 3.20265 17.8524 1.85295 14.5 1.8125ZM21.75 15.4062H15.4062V21.75H13.5938V15.4062H7.25V13.5938H13.5938V7.25H15.4062V13.5938H21.75V15.4062Z" fill="#415A6E"/>
</svg>
