<svg width="144" height="50" viewBox="0 0 144 50" fill="none" xmlns="http://www.w3.org/2000/svg">
<path d="M16.1591 21.5C15.5114 17.9205 12.6477 15.8068 9.13636 15.8068C4.67045 15.8068 1.43182 19.25 1.43182 24.7727C1.43182 30.2955 4.67045 33.7386 9.13636 33.7386C12.6477 33.7386 15.5114 31.625 16.1591 28.0455H14.0455C13.5341 30.4659 11.4545 31.7614 9.13636 31.7614C5.96591 31.7614 3.47727 29.3068 3.47727 24.7727C3.47727 20.2386 5.96591 17.7841 9.13636 17.7841C11.4545 17.7841 13.5341 19.0795 14.0455 21.5H16.1591ZM24.62 33.7727C28.1655 33.7727 30.5518 31.0795 30.5518 27.0227C30.5518 22.9318 28.1655 20.2386 24.62 20.2386C21.0746 20.2386 18.6882 22.9318 18.6882 27.0227C18.6882 31.0795 21.0746 33.7727 24.62 33.7727ZM24.62 31.9659C21.9268 31.9659 20.6996 29.6477 20.6996 27.0227C20.6996 24.3977 21.9268 22.0455 24.62 22.0455C27.3132 22.0455 28.5405 24.3977 28.5405 27.0227C28.5405 29.6477 27.3132 31.9659 24.62 31.9659ZM41.8722 28.1477C41.8722 30.6023 39.9972 31.7273 38.4972 31.7273C36.8267 31.7273 35.6335 30.5 35.6335 28.5909V20.4091H33.6222V28.7273C33.6222 32.0682 35.3949 33.6705 37.8494 33.6705C39.8267 33.6705 41.1222 32.6136 41.7358 31.2841H41.8722V33.5H43.8835V20.4091H41.8722V28.1477ZM47.5675 33.5H49.5788V25.2159C49.5788 23.4432 50.9766 22.1477 52.8857 22.1477C53.4226 22.1477 53.9766 22.25 54.1129 22.2841V20.2386C53.8828 20.2216 53.3544 20.2045 53.0561 20.2045C51.4879 20.2045 50.1243 21.0909 49.647 22.3864H49.5107V20.4091H47.5675V33.5ZM65.7699 23.3409C65.1392 21.483 63.7244 20.2386 61.1335 20.2386C58.3722 20.2386 56.3267 21.8068 56.3267 24.0227C56.3267 25.8295 57.4006 27.0398 59.804 27.6023L61.9858 28.1136C63.3068 28.4205 63.929 29.0511 63.929 29.9545C63.929 31.0795 62.7358 32 60.8608 32C59.2159 32 58.1847 31.2926 57.8267 29.8864L55.9176 30.3636C56.3864 32.5881 58.2188 33.7727 60.8949 33.7727C63.9375 33.7727 66.0085 32.1108 66.0085 29.8523C66.0085 28.0284 64.8665 26.8778 62.5312 26.3068L60.5881 25.8295C59.0369 25.446 58.3381 24.9261 58.3381 23.9205C58.3381 22.7955 59.5312 21.9773 61.1335 21.9773C62.8892 21.9773 63.6136 22.9489 63.9631 23.8523L65.7699 23.3409ZM74.5249 33.7727C77.1839 33.7727 79.1271 32.4432 79.7408 30.4659L77.7976 29.9205C77.2862 31.2841 76.1016 31.9659 74.5249 31.9659C72.1641 31.9659 70.5362 30.4403 70.4425 27.6364H79.9453V26.7841C79.9453 21.9091 77.0476 20.2386 74.3203 20.2386C70.7749 20.2386 68.4226 23.0341 68.4226 27.0568C68.4226 31.0795 70.7408 33.7727 74.5249 33.7727ZM70.4425 25.8977C70.5788 23.8608 72.0192 22.0455 74.3203 22.0455C76.5021 22.0455 77.8999 23.6818 77.8999 25.8977H70.4425ZM92.2777 23.3409C91.647 21.483 90.2322 20.2386 87.6413 20.2386C84.88 20.2386 82.8345 21.8068 82.8345 24.0227C82.8345 25.8295 83.9084 27.0398 86.3118 27.6023L88.4936 28.1136C89.8146 28.4205 90.4368 29.0511 90.4368 29.9545C90.4368 31.0795 89.2436 32 87.3686 32C85.7237 32 84.6925 31.2926 84.3345 29.8864L82.4254 30.3636C82.8942 32.5881 84.7266 33.7727 87.4027 33.7727C90.4453 33.7727 92.5163 32.1108 92.5163 29.8523C92.5163 28.0284 91.3743 26.8778 89.0391 26.3068L87.0959 25.8295C85.5447 25.446 84.8459 24.9261 84.8459 23.9205C84.8459 22.7955 86.0391 21.9773 87.6413 21.9773C89.397 21.9773 90.1214 22.9489 90.4709 23.8523L92.2777 23.3409Z" fill="#578CB5"/>
<path d="M115.187 10.4167C115.499 10.4156 115.806 10.4843 116.087 10.6177C116.369 10.7511 116.616 10.9458 116.812 11.1875L126.875 23.6875C127.181 24.0603 127.349 24.5279 127.349 25.0104C127.349 25.493 127.181 25.9606 126.875 26.3333L116.458 38.8333C116.105 39.2588 115.597 39.5263 115.046 39.5771C114.495 39.6279 113.946 39.4578 113.521 39.1042C113.095 38.7505 112.828 38.2424 112.777 37.6915C112.726 37.1406 112.896 36.5921 113.25 36.1667L122.562 25L113.562 13.8333C113.308 13.5275 113.146 13.1552 113.096 12.7603C113.046 12.3654 113.111 11.9645 113.282 11.605C113.453 11.2456 113.723 10.9427 114.061 10.7321C114.398 10.5215 114.789 10.412 115.187 10.4167Z" fill="#578CB5"/>
</svg>
