<svg width="56" height="63" viewBox="0 0 56 63" fill="none" xmlns="http://www.w3.org/2000/svg">
<path d="M55.9057 18.5325C55.9053 17.4759 55.6793 16.5423 55.2223 15.741C54.7735 14.9531 54.1012 14.2927 53.1996 13.7705C45.7566 9.47887 38.3064 5.20033 30.8658 0.904302C28.8599 -0.25376 26.915 -0.211541 24.9239 0.963146C21.9614 2.7103 7.12906 11.2081 2.70922 13.7681C0.889 14.8218 0.00328125 16.4345 0.00284375 18.5305C0 27.1613 0.00284375 35.7919 0 44.4229C0.0004375 45.4562 0.216781 46.3717 0.653625 47.161C1.10272 47.9727 1.78434 48.6513 2.70681 49.1853C7.12687 51.7453 21.9612 60.2424 24.9231 61.99C26.915 63.1654 28.8599 63.2074 30.8665 62.0489C38.3073 57.7526 45.7579 53.4743 53.202 49.1827C54.1244 48.6489 54.8061 47.9699 55.2552 47.1588C55.6913 46.3695 55.9081 45.4541 55.9086 44.4205C55.9086 44.4205 55.9086 27.1635 55.9057 18.5325Z" fill="#5C8DBC"/>
<path d="M28.0398 31.3926L0.653564 47.161C1.10266 47.9728 1.78428 48.6513 2.70675 49.1853C7.12681 51.7453 21.9611 60.2425 24.923 61.9901C26.9149 63.1654 28.8598 63.2074 30.8664 62.0489C38.3072 57.7526 45.7578 53.4743 53.2019 49.1827C54.1244 48.6489 54.806 47.9699 55.2551 47.1588L28.0398 31.3926Z" fill="#1A4674"/>
<path d="M19.9283 36.0634C21.5219 38.8454 24.5177 40.7219 27.9543 40.7219C31.4121 40.7219 34.4249 38.8216 36.0104 36.0098L28.0398 31.3926L19.9283 36.0634Z" fill="#1A4674"/>
<path d="M55.9057 18.5325C55.9053 17.4759 55.6793 16.5423 55.2223 15.741L28.0398 31.3926L55.2551 47.1588C55.6913 46.3695 55.9081 45.4541 55.9085 44.4205C55.9085 44.4205 55.9085 27.1635 55.9057 18.5325Z" fill="#1B598E"/>
<path d="M54.4092 32.5196H52.2825V34.6467H50.1554V32.5196H48.0289V30.3931H50.1554V28.2664H52.2825V30.3931H54.4092V32.5196Z" fill="white"/>
<path d="M46.6491 32.5196H44.5227V34.6467H42.396V32.5196H40.2693V30.3931H42.396V28.2664H44.5227V30.3931H46.6491V32.5196Z" fill="white"/>
<path d="M36.0105 36.0098C34.425 38.8216 31.4121 40.7219 27.9543 40.7219C24.5178 40.7219 21.522 38.8454 19.9284 36.0634C19.1279 34.6674 18.7074 33.0859 18.7091 31.4766C18.7091 26.3708 22.8485 22.2316 27.9543 22.2316C31.3688 22.2316 34.3488 24.0846 35.9503 26.8382L44.0312 22.185C40.8193 16.6406 34.8227 12.9104 27.9543 12.9104C17.7002 12.9104 9.38794 21.2229 9.38794 31.4766C9.38794 34.8406 10.2828 37.9951 11.8469 40.7162C15.0507 46.2899 21.0644 50.043 27.9543 50.043C34.857 50.043 40.8801 46.2748 44.0793 40.6847L36.0105 36.0098Z" fill="white"/>
</svg>
