<svg width="67" height="67" viewBox="0 0 67 67" fill="none" xmlns="http://www.w3.org/2000/svg">
<path d="M38.0874 27.3674H43.3406V32.74H45.9997C47.2419 32.7345 48.475 32.528 49.6512 32.1286C50.2694 31.9239 50.8644 31.6552 51.4267 31.3267C50.707 30.331 50.2799 29.1541 50.1935 27.9286C49.973 26.1403 50.4334 24.3345 51.4832 22.8701L52.036 22.2315L52.6934 22.7612C54.4376 24.0402 55.6193 25.9445 55.9911 28.0751C58.0192 27.4514 60.2118 27.6553 62.0902 28.6425L62.8125 29.0613L62.4335 29.8025C61.6651 31.0986 60.5287 32.1371 59.1686 32.7858C57.8086 33.4345 56.2864 33.6641 54.7955 33.4456C50.2458 44.7791 40.3487 50.1453 28.3263 50.1453C25.3324 50.3235 22.346 49.6902 19.682 48.3124C17.018 46.9345 14.7754 44.8631 13.1906 42.3168L13.1383 42.2268L12.6651 41.2658C11.5949 38.8378 11.177 36.1725 11.4528 33.5335L11.5261 32.7379H16.013V27.3674H21.2683V22.1121H31.7789V16.8568H38.0853V27.3674H38.0874Z" fill="#3A4E55"/>
<path d="M55.116 29.3565C55.152 28.2026 54.8993 27.058 54.3809 26.0266C53.8624 24.9951 53.0946 24.1095 52.147 23.45C51.3264 24.6548 50.9394 26.1025 51.0493 27.556C51.1593 29.0095 51.7597 30.3826 52.7521 31.4502C50.801 32.8961 48.428 33.6592 45.9998 33.6215H12.3176C12.0285 36.3093 12.513 39.0239 13.7142 41.4458L14.0973 42.1472C14.3397 42.5586 14.6046 42.9563 14.8908 43.3385C16.2755 43.4279 17.552 43.4593 18.7203 43.4328C20.6134 43.4444 22.4975 43.1698 24.3085 42.6183C24.4099 42.5833 24.521 42.59 24.6174 42.6369C24.7138 42.6839 24.7876 42.7672 24.8225 42.8685C24.8575 42.9698 24.8508 43.0809 24.8039 43.1773C24.757 43.2737 24.6737 43.3475 24.5723 43.3825C24.3839 43.4474 24.1871 43.5102 23.984 43.5668C22.7237 43.9192 21.428 44.1299 20.121 44.1949C20.2132 44.1949 20.0247 44.2095 20.0247 44.2095L19.853 44.2242C18.4522 44.2856 17.0492 44.2814 15.6488 44.2116L15.6278 44.2263C17.2609 45.9249 19.2388 47.254 21.4284 48.1244C23.6181 48.9948 25.9687 49.3862 28.3222 49.2722C39.9635 49.2722 49.8376 44.1111 54.2115 32.5222C57.3144 32.8405 60.2959 32.049 61.6506 29.4025C60.6389 28.8895 59.5219 28.6183 58.3876 28.6103C57.2533 28.6023 56.1327 28.8577 55.1139 29.3565" fill="#00AADA"/>
<path d="M55.1159 29.3565C55.1519 28.2026 54.8993 27.058 54.3808 26.0266C53.8623 24.9951 53.0945 24.1095 52.147 23.45C51.3264 24.6548 50.9393 26.1025 51.0492 27.556C51.1592 29.0095 51.7596 30.3826 52.752 31.4502C50.8009 32.8961 48.4279 33.6592 45.9997 33.6215H14.3129C14.1401 35.4982 14.4553 37.3877 15.2279 39.1067C16.0005 40.8258 17.2042 42.316 18.7223 43.4328C20.6155 43.4444 22.4995 43.1698 24.3105 42.6183C24.3607 42.601 24.4138 42.5937 24.4668 42.5969C24.5198 42.6001 24.5716 42.6137 24.6194 42.6369C24.6671 42.6602 24.7098 42.6926 24.745 42.7323C24.7802 42.772 24.8072 42.8183 24.8246 42.8685C24.8419 42.9187 24.8492 42.9718 24.846 43.0248C24.8428 43.0778 24.8292 43.1296 24.8059 43.1773C24.7827 43.2251 24.7503 43.2677 24.7105 43.303C24.6708 43.3382 24.6245 43.3652 24.5744 43.3825C24.3859 43.4474 24.1891 43.5102 23.986 43.5668C22.692 43.9294 21.3623 44.1498 20.0205 44.2242L19.9807 44.1781C23.942 46.2112 29.6873 46.2028 36.2742 43.6735C43.7901 40.637 50.3651 35.6595 55.3274 29.2497L55.118 29.3502" fill="#27B9EC"/>
<path d="M12.3802 37.1264C12.5787 38.6296 13.0296 40.0886 13.714 41.4416L14.0971 42.143C14.3395 42.5544 14.6044 42.9521 14.8907 43.3344C16.2753 43.4237 17.5518 43.4551 18.7201 43.4286C20.6133 43.4402 22.4973 43.1656 24.3083 42.6141C24.3585 42.5968 24.4116 42.5895 24.4646 42.5927C24.5176 42.5959 24.5694 42.6095 24.6172 42.6328C24.6649 42.656 24.7076 42.6884 24.7428 42.7281C24.778 42.7679 24.805 42.8141 24.8224 42.8643C24.8397 42.9145 24.847 42.9676 24.8438 43.0206C24.8406 43.0736 24.8269 43.1254 24.8037 43.1731C24.7805 43.2209 24.7481 43.2636 24.7083 43.2988C24.6686 43.334 24.6223 43.361 24.5722 43.3783C24.3837 43.4432 24.1869 43.506 23.9838 43.5626C22.6913 43.9199 21.3637 44.1354 20.0245 44.2054H19.8152C19.2059 44.2389 18.5589 44.2598 17.8847 44.2598C17.1498 44.2598 16.4002 44.2451 15.5816 44.2054C17.2197 45.9052 19.2022 47.2354 21.3963 48.1067C23.5903 48.978 25.9452 49.3704 28.3032 49.2576C38.2695 49.2576 46.9376 45.4742 51.9626 37.1138L12.3802 37.1264Z" fill="#088CB9"/>
<path d="M14.6144 37.1264C15.1222 39.6768 16.5925 41.9336 18.7202 43.4286C20.6134 43.4403 22.4974 43.1657 24.3084 42.6141C24.4098 42.5792 24.5209 42.5859 24.6173 42.6328C24.7137 42.6797 24.7875 42.763 24.8225 42.8643C24.8574 42.9657 24.8507 43.0768 24.8038 43.1732C24.7569 43.2696 24.6736 43.3434 24.5723 43.3784C24.3838 43.4433 24.187 43.5061 23.9839 43.5626C22.6848 43.9191 21.3511 44.1346 20.0058 44.2054C23.9672 46.2384 29.6957 46.2091 36.2805 43.6778C40.3441 42.0775 44.1403 39.8677 47.5386 37.1243L14.6144 37.1264Z" fill="#039CC7"/>
<path d="M20.7051 28.6237H21.0652V32.4196H20.7051V28.6237ZM20.0142 28.6237H20.389V32.4196H20.0142V28.6237ZM19.3232 28.6237H19.698V32.4196H19.3253V28.6237H19.3232ZM18.6323 28.6237H19.0071V32.4196H18.6344V28.6237H18.6323ZM17.9414 28.6237H18.3161V32.4196H17.9435V28.6237H17.9414ZM17.2651 28.6237H17.6252V32.4196H17.2693V28.6237H17.2651ZM16.8861 28.2447H21.44V32.8007H16.8882V28.2447H16.8861Z" fill="#00ACD3"/>
<path d="M25.9626 23.3683H26.3227V27.1643H25.9626V23.3683ZM25.2716 23.3683H25.6464V27.1643H25.2716V23.3683ZM24.5807 23.3683H24.9555V27.1643H24.5807V23.3683ZM23.8897 23.3683H24.2645V27.1643H23.8897V23.3683ZM23.1988 23.3683H23.5715V27.1643H23.1988V23.3683ZM22.5225 23.3683H22.8826V27.1643H22.5225V23.3683ZM22.1436 22.9893H26.6996V27.5453H22.1456V22.9872L22.1436 22.9893Z" fill="#00ACD3"/>
<path d="M25.9626 28.6237H26.3227V32.4196H25.9626V28.6237ZM25.2716 28.6237H25.6464V32.4196H25.2716V28.6237ZM24.5807 28.6237H24.9555V32.4196H24.5807V28.6237ZM23.8897 28.6237H24.2645V32.4196H23.8897V28.6237ZM23.1988 28.6237H23.5715V32.4196H23.1988V28.6237ZM22.5225 28.6237H22.8826V32.4196H22.5225V28.6237ZM22.1436 28.2447H26.6996V32.8007H22.1456V28.2447H22.1436Z" fill="#26C2EE"/>
<path d="M31.2157 28.6237H31.5759V32.4196H31.2157V28.6237ZM30.5248 28.6237H30.8996V32.4196H30.5269V28.6237H30.5248ZM29.8339 28.6237H30.2086V32.4196H29.8359V28.6237H29.8339ZM29.1429 28.6237H29.5219V32.4196H29.1471V28.6237H29.1429ZM28.452 28.6237H28.8268V32.4196H28.452V28.6237ZM27.7757 28.6237H28.1358V32.4196H27.7757V28.6237ZM27.3967 28.2447H31.9527V32.8007H27.4009V28.2447H27.3967Z" fill="#00ACD3"/>
<path d="M31.2157 23.3683H31.5759V27.1643H31.2157V23.3683ZM30.5248 23.3683H30.8996V27.1643H30.5269V23.3683H30.5248ZM29.8339 23.3683H30.2086V27.1643H29.8359V23.3683H29.8339ZM29.1429 23.3683H29.5219V27.1643H29.1471V23.3683H29.1429ZM28.452 23.3683H28.8268V27.1643H28.452V23.3683ZM27.7757 23.3683H28.1358V27.1643H27.7757V23.3683ZM27.3967 22.9893H31.9527V27.5453H27.4009V22.9872L27.3967 22.9893Z" fill="#26C2EE"/>
<path d="M36.4731 28.6237H36.8332V32.4196H36.4731V28.6237ZM35.7822 28.6237H36.1569V32.4196H35.7822V28.6237ZM35.0912 28.6237H35.466V32.4196H35.0912V28.6237ZM34.4003 28.6237H34.7751V32.4196H34.4003V28.6237ZM33.7094 28.6237H34.0841V32.4196H33.7094V28.6237ZM33.0331 28.6237H33.3932V32.4196H33.0331V28.6237ZM32.6625 28.2447H37.2185V32.8007H32.6625V28.2447Z" fill="#26C2EE"/>
<path d="M36.4732 23.3683H36.8333V27.1643H36.4732V23.3683ZM35.7822 23.3683H36.157V27.1643H35.7822V23.3683ZM35.0913 23.3683H35.4661V27.1643H35.0913V23.3683ZM34.4004 23.3683H34.7751V27.1643H34.4004V23.3683ZM33.7094 23.3683H34.0842V27.1643H33.7094V23.3683ZM33.0331 23.3683H33.3933V27.1643H33.0331V23.3683ZM32.6542 22.9893H37.2102V27.5453H32.6626V22.9872L32.6542 22.9893Z" fill="#00ACD3"/>
<path d="M36.4731 18.1109H36.8332V21.9069H36.4731V18.1109ZM35.7822 18.1109H36.1569V21.9069H35.7822V18.1109ZM35.0912 18.1109H35.466V21.9069H35.0912V18.1109ZM34.4003 18.1109H34.7751V21.9069H34.4003V18.1109ZM33.7094 18.1109H34.0841V21.9069H33.7094V18.1109ZM33.0331 18.1109H33.3932V21.9069H33.0331V18.1109ZM32.6625 17.7319H37.2185V22.2879H32.6625V17.7319Z" fill="#26C2EE"/>
<path d="M41.7284 28.6237H42.0844V32.4196H41.7284V28.6237ZM41.0375 28.6237H41.4102V32.4196H41.0375V28.6237ZM40.3466 28.6237H40.7213V32.4196H40.3466V28.6237ZM39.6556 28.6237H40.0304V32.4196H39.6556V28.6237ZM38.9647 28.6237H39.3395V32.4196H38.9647V28.6237ZM38.2884 28.6237H38.6485V32.4196H38.2884V28.6237ZM37.9094 28.2447H42.4654V32.8007H37.9115V28.2447H37.9094Z" fill="#00ACD3"/>
<path d="M26.4148 40.1854C26.6633 40.1854 26.9062 40.259 27.1128 40.3971C27.3193 40.5351 27.4804 40.7313 27.5754 40.9609C27.6705 41.1904 27.6954 41.443 27.6469 41.6867C27.5985 41.9304 27.4788 42.1542 27.3031 42.3299C27.1274 42.5056 26.9036 42.6252 26.6599 42.6737C26.4162 42.7222 26.1636 42.6973 25.9341 42.6022C25.7045 42.5071 25.5083 42.3461 25.3703 42.1395C25.2322 41.933 25.1586 41.6901 25.1586 41.4416C25.1586 41.1084 25.2909 40.7889 25.5265 40.5533C25.7621 40.3177 26.0816 40.1854 26.4148 40.1854Z" fill="#D5EEF2"/>
<path d="M26.4148 40.5413C26.5265 40.5411 26.6372 40.5617 26.7414 40.602C26.6926 40.6303 26.6509 40.6696 26.6198 40.7166C26.5886 40.7637 26.5687 40.8173 26.5617 40.8734C26.5547 40.9294 26.5607 40.9863 26.5793 41.0396C26.5979 41.0929 26.6286 41.1412 26.6689 41.1807C26.7093 41.2202 26.7582 41.2498 26.8119 41.2673C26.8656 41.2848 26.9226 41.2896 26.9784 41.2814C27.0343 41.2732 27.0875 41.2523 27.1339 41.2201C27.1803 41.188 27.2187 41.1455 27.246 41.0961C27.32 41.2743 27.3349 41.4715 27.2883 41.6587C27.2418 41.846 27.1363 42.0133 26.9875 42.1361C26.8387 42.2588 26.6543 42.3305 26.4617 42.3406C26.269 42.3507 26.0782 42.2986 25.9174 42.1921C25.7565 42.0855 25.6342 41.9301 25.5683 41.7488C25.5025 41.5674 25.4966 41.3697 25.5517 41.1848C25.6067 40.9999 25.7196 40.8375 25.8739 40.7217C26.0282 40.6058 26.2156 40.5426 26.4085 40.5413" fill="#3A4E55"/>
<path d="M4.18752 37.5807H62.645C61.372 37.2583 58.6187 36.8228 59.071 35.1541C56.7574 37.832 51.1755 37.0384 49.7664 35.7131C48.1981 37.989 39.0652 37.1243 38.4287 35.3509C36.4627 37.654 30.3678 37.654 28.4017 35.3509C27.7736 37.1243 18.6323 37.989 17.0641 35.7131C15.655 37.0342 10.0751 37.832 7.75946 35.1541C8.2138 36.8291 5.45633 37.2583 4.18542 37.5807" fill="#3A4E55"/>
<path d="M29.7543 49.2408C27.1832 48.145 25.1218 46.1173 23.9839 43.5646C22.6242 43.9253 21.2291 44.1359 19.8236 44.1928C19.215 44.2263 18.575 44.2437 17.9036 44.2451C17.1303 44.2451 16.3152 44.2221 15.4581 44.176C17.1118 45.898 19.1168 47.2436 21.3369 48.1216C23.557 48.9995 25.9401 49.3891 28.3242 49.2638C28.8044 49.2638 29.2811 49.2548 29.7543 49.2366" fill="#C0DBE1"/>
<path d="M25.1396 45.5872C24.6832 44.9562 24.2958 44.2782 23.9839 43.5646C22.6242 43.9253 21.2291 44.1359 19.8236 44.1928C21.4789 45.0228 23.2899 45.4964 25.1396 45.583" fill="#D5EEF2"/>
</svg>
