<svg width="40" height="40" viewBox="0 0 40 40" fill="none" xmlns="http://www.w3.org/2000/svg">
<g clip-path="url(#clip0)">
<path d="M39.8743 17.7794C39.8111 17.2172 39.1553 16.7942 38.5883 16.7942C36.7557 16.7942 35.1293 15.7186 34.4472 14.0538C33.7509 12.349 34.2002 10.3612 35.5656 9.10863C35.9956 8.71544 36.048 8.05705 35.6875 7.60002C34.7492 6.40885 33.6833 5.3327 32.5191 4.40014C32.0636 4.03479 31.3944 4.08565 30.9991 4.52313C29.807 5.84336 27.6656 6.33394 26.0109 5.64356C24.2895 4.91927 23.203 3.17436 23.3097 1.30144C23.3448 0.712773 22.9144 0.201254 22.3278 0.132925C20.8337 -0.0400612 19.3265 -0.0450777 17.8281 0.121162C17.249 0.185166 16.8189 0.684576 16.8381 1.26581C16.903 3.12039 15.8042 4.8345 14.0994 5.53285C12.4645 6.20074 10.338 5.71379 9.14839 4.40515C8.75519 3.97407 8.09768 3.92114 7.63909 4.2787C6.44065 5.21922 5.35066 6.29606 4.40374 7.47755C4.03476 7.93683 4.08925 8.60248 4.52293 8.99706C5.91529 10.2579 6.36419 12.2629 5.64128 13.9875C4.95107 15.6318 3.24387 16.6909 1.28965 16.6909C0.655485 16.6705 0.204165 17.0966 0.134106 17.6733C-0.0416477 19.1754 -0.0435505 20.7066 0.125629 22.2209C0.188769 22.7856 0.863932 23.2049 1.43721 23.2049C3.17917 23.1606 4.85056 24.2383 5.55271 25.9452C6.2514 27.6499 5.80164 29.6368 4.43401 30.8912C4.00622 31.2844 3.95155 31.9412 4.31275 32.3977C5.24151 33.5814 6.30848 34.6583 7.47614 35.5988C7.93455 35.9679 8.60124 35.9162 8.99858 35.4782C10.1953 34.1549 12.3363 33.6652 13.9844 34.3569C15.7108 35.0793 16.7968 36.8241 16.6907 38.6975C16.656 39.2862 17.0874 39.7992 17.6719 39.866C18.4365 39.9554 19.2051 39.9997 19.9761 39.9997C20.7078 39.9997 21.4397 39.9598 22.1716 39.8783C22.7515 39.8143 23.1808 39.3144 23.1613 38.7329C23.0943 36.8792 24.1955 35.1649 25.8982 34.468C27.544 33.7958 29.661 34.2877 30.8513 35.5945C31.2466 36.0247 31.9002 36.0769 32.3606 35.7208C33.557 34.7826 34.6449 33.7063 35.596 32.5217C35.9653 32.0633 35.9129 31.3968 35.4768 31.0015C34.0848 29.7415 33.6335 27.7357 34.3564 26.0128C35.0359 24.3907 36.6796 23.3016 38.4475 23.3016L38.6949 23.3082C39.2688 23.3547 39.7963 22.9127 39.8656 22.3272C40.0422 20.8237 40.0442 19.2942 39.8743 17.7794ZM20.0001 31.53C13.632 31.53 8.46994 26.3679 8.46994 20C8.46994 13.632 13.6322 8.46997 20.0001 8.46997C26.3681 8.46997 31.5303 13.632 31.5303 20C31.5303 22.1614 30.9344 24.1831 29.8994 25.9119L24.8506 20.863C25.2162 20.0012 25.4092 19.0669 25.409 18.1027C25.409 16.2145 24.6737 14.4395 23.3384 13.1046C22.0035 11.7697 20.2285 11.0345 18.3407 11.0345C17.7107 11.0345 17.0836 11.1182 16.4769 11.2834C16.2112 11.3559 15.994 11.5749 15.9232 11.8411C15.8509 12.1134 15.9324 12.3924 16.1451 12.6054C16.1451 12.6054 18.6377 15.1171 19.4717 15.9509C19.559 16.0383 19.5588 16.2467 19.5466 16.3218L19.5388 16.3766C19.4547 17.2934 19.2926 18.394 19.1589 18.8169C19.1409 18.8348 19.124 18.8498 19.1056 18.8681C19.0864 18.8873 19.0688 18.9058 19.0503 18.9249C18.6218 19.0624 17.5043 19.2264 16.5729 19.3098L16.5731 19.3048L16.5312 19.3153C16.5238 19.3162 16.51 19.3172 16.4916 19.3172C16.391 19.3172 16.2429 19.289 16.1083 19.1546C15.2403 18.2866 12.8454 15.9089 12.8454 15.9089C12.6306 15.6947 12.4102 15.6497 12.2633 15.6497C11.921 15.6497 11.6145 15.8971 11.5179 16.2519C10.8587 18.6915 11.5576 21.3157 13.3423 23.1006C14.6775 24.4357 16.4527 25.1709 18.3409 25.1709C19.3051 25.1709 20.2394 24.978 21.101 24.6125L26.2046 29.7161C24.4128 30.8626 22.2851 31.53 20.0001 31.53Z" fill="#578CB5"/>
</g>
<defs>
<clipPath id="clip0">
<rect width="40" height="40" fill="white"/>
</clipPath>
</defs>
</svg>
