<svg width="67" height="67" viewBox="0 0 67 67" fill="none" xmlns="http://www.w3.org/2000/svg">
<path d="M39.4375 8H33.5781H17.4648C16.6552 8 16 8.65518 16 9.46484V56.5352C16 57.3448 16.6552 58 17.4648 58H33.5781H49.6914C50.5011 58 51.1562 57.3448 51.1562 56.5352V19.7188L39.4375 8Z" fill="#EDF5FF"/>
<path d="M51.1562 56.5352V19.7188L39.4375 8H33.5781V58H49.6914C50.5011 58 51.1562 57.3448 51.1562 56.5352Z" fill="#D5E8FE"/>
<path d="M50.7271 17.2183L41.938 8.4292C41.6634 8.15449 41.2914 8 40.9023 8H39.4375V18.2539C39.4375 19.0629 40.0934 19.7188 40.9023 19.7188H51.1562V18.2539C51.1562 17.8648 51.0018 17.4929 50.7271 17.2183Z" fill="#A8D3D8"/>
<path d="M29.1836 46.1836H23.3242C22.5146 46.1836 21.8594 45.5284 21.8594 44.7188V35.9297C21.8594 35.12 22.5146 34.4648 23.3242 34.4648H29.1836C29.9933 34.4648 30.6484 35.12 30.6484 35.9297V44.7188C30.6484 45.5284 29.9933 46.1836 29.1836 46.1836Z" fill="#7ED8F6"/>
<path d="M43.832 52.043H35.043C34.2333 52.043 33.5781 51.3878 33.5781 50.5781V35.9297C33.5781 35.12 34.2333 34.4648 35.043 34.4648H43.832C44.6417 34.4648 45.2969 35.12 45.2969 35.9297V50.5781C45.2969 51.3878 44.6417 52.043 43.832 52.043Z" fill="#6AA9FF"/>
<path d="M29.1836 52.043H23.3242C22.5146 52.043 21.8594 51.3878 21.8594 50.5781C21.8594 49.7685 22.5146 49.1133 23.3242 49.1133H29.1836C29.9933 49.1133 30.6484 49.7685 30.6484 50.5781C30.6484 51.3878 29.9933 52.043 29.1836 52.043Z" fill="#7ED8F6"/>
<path d="M43.832 22.6484H33.5781H23.3242C22.5146 22.6484 21.8594 23.3036 21.8594 24.1133V30.0703C21.8594 30.88 22.5146 31.5352 23.3242 31.5352H33.5781H43.832C44.6417 31.5352 45.2969 30.88 45.2969 30.0703V24.1133C45.2969 23.3036 44.6417 22.6484 43.832 22.6484Z" fill="#7ED8F6"/>
<path d="M45.2969 30.0703V24.1133C45.2969 23.3036 44.6417 22.6484 43.832 22.6484H33.5781V31.5352H43.832C44.6417 31.5352 45.2969 30.88 45.2969 30.0703Z" fill="#6AA9FF"/>
</svg>
