<svg width="67" height="67" viewBox="0 0 67 67" fill="none" xmlns="http://www.w3.org/2000/svg">
<path d="M33.6461 8L12 20.5V45.4996L33.6461 58L55.2919 45.4996V20.5L33.6461 8Z" fill="#33739E"/>
<path d="M33.646 8V58L55.2917 45.4996V20.5L33.646 8Z" fill="#275C7F"/>
<path d="M23.2144 39.0135L17.2009 33L23.2144 26.9861L25.2877 29.0594L21.3467 33L25.2877 36.9406L23.2144 39.0135Z" fill="#54BAFC"/>
<path d="M44.0773 39.0135L42.0044 36.9406L45.945 33L42.0044 29.0594L44.0773 26.9861L50.0912 33L44.0773 39.0135Z" fill="#4AA3DE"/>
<path d="M35.7848 25.4431L38.4067 26.7538L31.5063 40.555L28.884 39.2439L35.7848 25.4431Z" fill="#54BAFC"/>
</svg>
