<svg width="160" height="24" viewBox="0 0 160 24" fill="none" xmlns="http://www.w3.org/2000/svg">
<g clip-path="url(#clip0)">
<path fill-rule="evenodd" clip-rule="evenodd" d="M13.2 19.2C13.8365 19.2 14.447 19.4529 14.8971 19.9029C15.3471 20.353 15.6 20.9635 15.6 21.6C15.6 22.2365 15.3471 22.847 14.8971 23.2971C14.447 23.7471 13.8365 24 13.2 24C12.5635 24 11.953 23.7471 11.5029 23.2971C11.0529 22.847 10.8 22.2365 10.8 21.6C10.8 20.9635 11.0529 20.353 11.5029 19.9029C11.953 19.4529 12.5635 19.2 13.2 19.2ZM5.6892 15.6C6.48485 15.6 7.24791 15.9161 7.81052 16.4787C8.37313 17.0413 8.6892 17.8044 8.6892 18.6C8.6892 19.3957 8.37313 20.1587 7.81052 20.7213C7.24791 21.2839 6.48485 21.6 5.6892 21.6C4.89355 21.6 4.13049 21.2839 3.56788 20.7213C3.00527 20.1587 2.6892 19.3957 2.6892 18.6C2.6892 17.8044 3.00527 17.0413 3.56788 16.4787C4.13049 15.9161 4.89355 15.6 5.6892 15.6ZM19.5828 16.2C20.2193 16.2 20.8298 16.4529 21.2799 16.9029C21.7299 17.353 21.9828 17.9635 21.9828 18.6C21.9828 19.2365 21.7299 19.847 21.2799 20.2971C20.8298 20.7471 20.2193 21 19.5828 21C18.9463 21 18.3358 20.7471 17.8857 20.2971C17.4357 19.847 17.1828 19.2365 17.1828 18.6C17.1828 17.9635 17.4357 17.353 17.8857 16.9029C18.3358 16.4529 18.9463 16.2 19.5828 16.2ZM22.2 11.1828C22.6774 11.1828 23.1352 11.3724 23.4728 11.71C23.8104 12.0476 24 12.5054 24 12.9828C24 13.4602 23.8104 13.918 23.4728 14.2556C23.1352 14.5932 22.6774 14.7828 22.2 14.7828C21.7226 14.7828 21.2648 14.5932 20.9272 14.2556C20.5896 13.918 20.4 13.4602 20.4 12.9828C20.4 12.5054 20.5896 12.0476 20.9272 11.71C21.2648 11.3724 21.7226 11.1828 22.2 11.1828ZM3 7.2C3.79565 7.2 4.55871 7.51607 5.12132 8.07868C5.68393 8.64129 6 9.40435 6 10.2C6 10.9957 5.68393 11.7587 5.12132 12.3213C4.55871 12.8839 3.79565 13.2 3 13.2C2.20435 13.2 1.44129 12.8839 0.87868 12.3213C0.316071 11.7587 0 10.9957 0 10.2C0 9.40435 0.316071 8.64129 0.87868 8.07868C1.44129 7.51607 2.20435 7.2 3 7.2ZM21.3432 6.2484C21.6615 6.2484 21.9667 6.37483 22.1917 6.59987C22.4168 6.82492 22.5432 7.13014 22.5432 7.4484C22.5432 7.76666 22.4168 8.07189 22.1917 8.29693C21.9667 8.52197 21.6615 8.6484 21.3432 8.6484C21.0249 8.6484 20.7197 8.52197 20.4947 8.29693C20.2696 8.07189 20.1432 7.76666 20.1432 7.4484C20.1432 7.13014 20.2696 6.82492 20.4947 6.59987C20.7197 6.37483 21.0249 6.2484 21.3432 6.2484ZM9.6 0C10.5548 0 11.4705 0.379285 12.1456 1.05442C12.8207 1.72955 13.2 2.64522 13.2 3.6C13.2 4.55478 12.8207 5.47045 12.1456 6.14558C11.4705 6.82072 10.5548 7.2 9.6 7.2C8.64522 7.2 7.72955 6.82072 7.05442 6.14558C6.37928 5.47045 6 4.55478 6 3.6C6 2.64522 6.37928 1.72955 7.05442 1.05442C7.72955 0.379285 8.64522 0 9.6 0V0ZM18.6 3.6C18.7591 3.6 18.9117 3.66321 19.0243 3.77574C19.1368 3.88826 19.2 4.04087 19.2 4.2C19.2 4.35913 19.1368 4.51174 19.0243 4.62426C18.9117 4.73679 18.7591 4.8 18.6 4.8C18.4409 4.8 18.2883 4.73679 18.1757 4.62426C18.0632 4.51174 18 4.35913 18 4.2C18 4.04087 18.0632 3.88826 18.1757 3.77574C18.2883 3.66321 18.4409 3.6 18.6 3.6Z" fill="#8DBA81"/>
</g>
<path d="M30.642 16.5H31.733L33.6591 9.54545H33.7273L35.6534 16.5H36.7443L39.1307 7.77273H38.0568L36.233 14.8807H36.1477L34.2898 7.77273H33.0966L31.2386 14.8807H31.1534L29.3295 7.77273H28.2557L30.642 16.5ZM42.3608 16.6364C44.1335 16.6364 45.3267 15.2898 45.3267 13.2614C45.3267 11.2159 44.1335 9.86932 42.3608 9.86932C40.5881 9.86932 39.3949 11.2159 39.3949 13.2614C39.3949 15.2898 40.5881 16.6364 42.3608 16.6364ZM42.3608 15.733C41.0142 15.733 40.4006 14.5739 40.4006 13.2614C40.4006 11.9489 41.0142 10.7727 42.3608 10.7727C43.7074 10.7727 44.321 11.9489 44.321 13.2614C44.321 14.5739 43.7074 15.733 42.3608 15.733ZM46.8619 16.5H47.8675V12.358C47.8675 11.4716 48.5664 10.8239 49.521 10.8239C49.7894 10.8239 50.0664 10.875 50.1346 10.892V9.86932C50.0195 9.8608 49.7553 9.85227 49.6062 9.85227C48.8221 9.85227 48.1403 10.2955 47.9016 10.9432H47.8335V9.95455H46.8619V16.5ZM51.3267 16.5H52.3324V14.0497L53.0355 13.3977L55.4858 16.5H56.7642L53.794 12.75L56.5597 9.95455H55.3153L52.4517 12.8693H52.3324V7.77273H51.3267V16.5ZM62.4904 11.4205C62.1751 10.4915 61.4677 9.86932 60.1722 9.86932C58.7915 9.86932 57.7688 10.6534 57.7688 11.7614C57.7688 12.6648 58.3058 13.2699 59.5075 13.5511L60.5984 13.8068C61.2589 13.9602 61.57 14.2756 61.57 14.7273C61.57 15.2898 60.9734 15.75 60.0359 15.75C59.2134 15.75 58.6978 15.3963 58.5188 14.6932L57.5643 14.9318C57.7987 16.044 58.7148 16.6364 60.0529 16.6364C61.5742 16.6364 62.6097 15.8054 62.6097 14.6761C62.6097 13.7642 62.0387 13.1889 60.8711 12.9034L59.8995 12.6648C59.1239 12.473 58.7745 12.2131 58.7745 11.7102C58.7745 11.1477 59.3711 10.7386 60.1722 10.7386C61.0501 10.7386 61.4123 11.2244 61.587 11.6761L62.4904 11.4205ZM64.1236 18.9545H65.1293V15.4943H65.2145C65.4361 15.8523 65.8622 16.6364 67.1236 16.6364C68.7599 16.6364 69.902 15.3239 69.902 13.2443C69.902 11.1818 68.7599 9.86932 67.1065 9.86932C65.8281 9.86932 65.4361 10.6534 65.2145 10.9943H65.0952V9.95455H64.1236V18.9545ZM65.1122 13.2273C65.1122 11.7614 65.7599 10.7727 66.9872 10.7727C68.2656 10.7727 68.8963 11.8466 68.8963 13.2273C68.8963 14.625 68.2486 15.733 66.9872 15.733C65.777 15.733 65.1122 14.7102 65.1122 13.2273ZM73.3622 16.6534C74.5043 16.6534 75.1009 16.0398 75.3054 15.6136H75.3565V16.5H76.3622V12.1875C76.3622 10.108 74.777 9.86932 73.9418 9.86932C72.9531 9.86932 71.8281 10.2102 71.3168 11.4034L72.2713 11.7443C72.4929 11.267 73.017 10.7557 73.9759 10.7557C74.9006 10.7557 75.3565 11.2457 75.3565 12.0852V12.1193C75.3565 12.6051 74.8622 12.5625 73.669 12.7159C72.4545 12.8736 71.1293 13.142 71.1293 14.642C71.1293 15.9205 72.1179 16.6534 73.3622 16.6534ZM73.5156 15.75C72.7145 15.75 72.1349 15.392 72.1349 14.6932C72.1349 13.9261 72.8338 13.6875 73.6179 13.5852C74.044 13.5341 75.1861 13.4148 75.3565 13.2102V14.1307C75.3565 14.9489 74.7088 15.75 73.5156 15.75ZM80.8569 16.6364C82.3058 16.6364 83.2603 15.75 83.4308 14.5909H82.4251C82.2376 15.3068 81.641 15.733 80.8569 15.733C79.6637 15.733 78.8967 14.7443 78.8967 13.2273C78.8967 11.7443 79.6808 10.7727 80.8569 10.7727C81.7433 10.7727 82.2717 11.3182 82.4251 11.9148H83.4308C83.2603 10.6875 82.2205 9.86932 80.8398 9.86932C79.0671 9.86932 77.891 11.267 77.891 13.2614C77.891 15.2216 79.016 16.6364 80.8569 16.6364ZM87.6452 16.6364C88.9748 16.6364 89.9464 15.9716 90.2532 14.983L89.2816 14.7102C89.0259 15.392 88.4336 15.733 87.6452 15.733C86.4648 15.733 85.6509 14.9702 85.604 13.5682H90.3555V13.142C90.3555 10.7045 88.9066 9.86932 87.543 9.86932C85.7702 9.86932 84.5941 11.267 84.5941 13.2784C84.5941 15.2898 85.7532 16.6364 87.6452 16.6364ZM85.604 12.6989C85.6722 11.6804 86.3924 10.7727 87.543 10.7727C88.6339 10.7727 89.3327 11.5909 89.3327 12.6989H85.604ZM95.2603 16.5H96.266V9.95455H95.2603V16.5ZM95.7717 8.86364C96.1637 8.86364 96.4876 8.55682 96.4876 8.18182C96.4876 7.80682 96.1637 7.5 95.7717 7.5C95.3796 7.5 95.0558 7.80682 95.0558 8.18182C95.0558 8.55682 95.3796 8.86364 95.7717 8.86364ZM102.744 11.4205C102.429 10.4915 101.722 9.86932 100.426 9.86932C99.0455 9.86932 98.0227 10.6534 98.0227 11.7614C98.0227 12.6648 98.5597 13.2699 99.7614 13.5511L100.852 13.8068C101.513 13.9602 101.824 14.2756 101.824 14.7273C101.824 15.2898 101.227 15.75 100.29 15.75C99.4673 15.75 98.9517 15.3963 98.7727 14.6932L97.8182 14.9318C98.0526 16.044 98.9688 16.6364 100.307 16.6364C101.828 16.6364 102.864 15.8054 102.864 14.6761C102.864 13.7642 102.293 13.1889 101.125 12.9034L100.153 12.6648C99.3778 12.473 99.0284 12.2131 99.0284 11.7102C99.0284 11.1477 99.625 10.7386 100.426 10.7386C101.304 10.7386 101.666 11.2244 101.841 11.6761L102.744 11.4205ZM107.752 16.5H108.758V12.358C108.758 11.4716 109.457 10.8239 110.412 10.8239C110.68 10.8239 110.957 10.875 111.025 10.892V9.86932C110.91 9.8608 110.646 9.85227 110.497 9.85227C109.713 9.85227 109.031 10.2955 108.792 10.9432H108.724V9.95455H107.752V16.5ZM116.342 13.8239C116.342 15.0511 115.405 15.6136 114.655 15.6136C113.82 15.6136 113.223 15 113.223 14.0455V9.95455H112.217V14.1136C112.217 15.7841 113.104 16.5852 114.331 16.5852C115.32 16.5852 115.967 16.0568 116.274 15.392H116.342V16.5H117.348V9.95455H116.342V13.8239ZM120.196 12.5625C120.196 11.4205 120.903 10.7727 121.866 10.7727C122.799 10.7727 123.366 11.3821 123.366 12.4091V16.5H124.372V12.3409C124.372 10.6705 123.481 9.86932 122.156 9.86932C121.167 9.86932 120.554 10.3125 120.247 10.9773H120.162V9.95455H119.19V16.5H120.196V12.5625ZM127.215 12.5625C127.215 11.4205 127.923 10.7727 128.886 10.7727C129.819 10.7727 130.386 11.3821 130.386 12.4091V16.5H131.391V12.3409C131.391 10.6705 130.501 9.86932 129.175 9.86932C128.187 9.86932 127.573 10.3125 127.266 10.9773H127.181V9.95455H126.21V16.5H127.215V12.5625ZM133.229 16.5H134.235V9.95455H133.229V16.5ZM133.74 8.86364C134.132 8.86364 134.456 8.55682 134.456 8.18182C134.456 7.80682 134.132 7.5 133.74 7.5C133.348 7.5 133.025 7.80682 133.025 8.18182C133.025 8.55682 133.348 8.86364 133.74 8.86364ZM137.082 12.5625C137.082 11.4205 137.79 10.7727 138.753 10.7727C139.686 10.7727 140.253 11.3821 140.253 12.4091V16.5H141.259V12.3409C141.259 10.6705 140.368 9.86932 139.043 9.86932C138.054 9.86932 137.44 10.3125 137.134 10.9773H137.048V9.95455H136.077V16.5H137.082V12.5625ZM145.738 19.0909C147.306 19.0909 148.568 18.375 148.568 16.6875V9.95455H147.596V10.9943H147.494C147.272 10.6534 146.863 9.86932 145.585 9.86932C143.931 9.86932 142.789 11.1818 142.789 13.1932C142.789 15.2386 143.983 16.3977 145.568 16.3977C146.846 16.3977 147.255 15.6477 147.477 15.2898H147.562V16.6193C147.562 17.7102 146.795 18.2045 145.738 18.2045C144.549 18.2045 144.132 17.5781 143.863 17.2159L143.062 17.7784C143.471 18.4645 144.277 19.0909 145.738 19.0909ZM145.704 15.4943C144.443 15.4943 143.795 14.5398 143.795 13.1761C143.795 11.8466 144.426 10.7727 145.704 10.7727C146.931 10.7727 147.579 11.7614 147.579 13.1761C147.579 14.625 146.914 15.4943 145.704 15.4943ZM151.142 16.5682C151.564 16.5682 151.909 16.223 151.909 15.8011C151.909 15.3793 151.564 15.0341 151.142 15.0341C150.72 15.0341 150.375 15.3793 150.375 15.8011C150.375 16.223 150.72 16.5682 151.142 16.5682ZM154.446 16.5682C154.868 16.5682 155.213 16.223 155.213 15.8011C155.213 15.3793 154.868 15.0341 154.446 15.0341C154.025 15.0341 153.679 15.3793 153.679 15.8011C153.679 16.223 154.025 16.5682 154.446 16.5682ZM157.751 16.5682C158.173 16.5682 158.518 16.223 158.518 15.8011C158.518 15.3793 158.173 15.0341 157.751 15.0341C157.329 15.0341 156.984 15.3793 156.984 15.8011C156.984 16.223 157.329 16.5682 157.751 16.5682Z" fill="#8DBA81"/>
<defs>
<clipPath id="clip0">
<rect width="24" height="24" fill="white"/>
</clipPath>
</defs>
</svg>