<svg width="50" height="50" viewBox="0 0 50 50" fill="none" xmlns="http://www.w3.org/2000/svg">
<path d="M40.625 6.25H34.375V3.125H31.25V6.25H18.75V3.125H15.625V6.25H9.375C8.54645 6.25083 7.75208 6.58033 7.16621 7.16621C6.58033 7.75208 6.25083 8.54645 6.25 9.375V40.625C6.25083 41.4535 6.58033 42.2479 7.16621 42.8338C7.75208 43.4197 8.54645 43.7492 9.375 43.75H40.625C41.4535 43.7492 42.2479 43.4197 42.8338 42.8338C43.4197 42.2479 43.7492 41.4535 43.75 40.625V9.375C43.7492 8.54645 43.4197 7.75208 42.8338 7.16621C42.2479 6.58033 41.4535 6.25083 40.625 6.25ZM9.375 9.375H15.625V12.5H18.75V9.375H31.25V12.5H34.375V9.375H40.625V15.625H9.375V9.375ZM9.375 18.75H17.1875V28.125H9.375V18.75ZM29.6875 40.625H20.3125V31.25H29.6875V40.625ZM29.6875 28.125H20.3125V18.75H29.6875V28.125ZM32.8125 40.625V31.25H40.625L40.6266 40.625H32.8125Z" fill="#A8B3BD"/>
</svg>
