<svg width="20" height="20" viewBox="0 0 20 20" fill="none" xmlns="http://www.w3.org/2000/svg">
<path d="M10 20C8.64583 20 7.35026 19.7363 6.11328 19.209C4.8763 18.6816 3.81185 17.972 2.91992 17.0801C2.02799 16.1882 1.31836 15.1237 0.791016 13.8867C0.263672 12.6497 0 11.3542 0 10C0 8.64583 0.263672 7.35026 0.791016 6.11328C1.31836 4.8763 2.02799 3.81185 2.91992 2.91992C3.81185 2.02799 4.8763 1.31836 6.11328 0.791016C7.35026 0.263672 8.64583 0 10 0C11.3542 0 12.6497 0.263672 13.8867 0.791016C15.1237 1.31836 16.1882 2.02799 17.0801 2.91992C17.972 3.81185 18.6816 4.8763 19.209 6.11328C19.7363 7.35026 20 8.64583 20 10C20 11.3542 19.7363 12.6497 19.209 13.8867C18.6816 15.1237 17.972 16.1882 17.0801 17.0801C16.1882 17.972 15.1237 18.6816 13.8867 19.209C12.6497 19.7363 11.3542 20 10 20ZM15.2734 8.69141C15.1172 8.76953 14.9544 8.76953 14.7852 8.69141C14.6159 8.61328 14.4954 8.48633 14.4238 8.31055C14.3522 8.13477 14.3522 7.95573 14.4238 7.77344C14.4954 7.59115 14.6159 7.46745 14.7852 7.40234L16.6406 6.5625C15.8984 5.14323 14.8307 4.06901 13.4375 3.33984L12.5977 5.21484C12.5326 5.38411 12.4089 5.50456 12.2266 5.57617C12.0443 5.64779 11.8652 5.64779 11.6895 5.57617C11.5137 5.50456 11.3867 5.38411 11.3086 5.21484C11.2305 5.04557 11.2305 4.8763 11.3086 4.70703L12.1484 2.8125C11.4453 2.60417 10.7292 2.5 10 2.5C9.27083 2.5 8.55469 2.60417 7.85156 2.8125L8.69141 4.70703C8.76953 4.8763 8.76953 5.04557 8.69141 5.21484C8.61328 5.38411 8.48633 5.50456 8.31055 5.57617C8.13477 5.64779 7.95573 5.64779 7.77344 5.57617C7.59115 5.50456 7.46745 5.38411 7.40234 5.21484L6.5625 3.33984C5.16927 4.05599 4.10156 5.13021 3.35938 6.5625L5.21484 7.38281C5.37109 7.46094 5.48503 7.58789 5.55664 7.76367C5.62826 7.93945 5.62826 8.11849 5.55664 8.30078C5.48503 8.48307 5.36784 8.61003 5.20508 8.68164C5.04232 8.75325 4.8763 8.75 4.70703 8.67188L2.8125 7.85156C2.60417 8.55469 2.5 9.27083 2.5 10C2.5 10.7292 2.60417 11.4453 2.8125 12.1484L4.70703 11.3281C4.8763 11.25 5.04232 11.2467 5.20508 11.3184C5.36784 11.39 5.48503 11.5169 5.55664 11.6992C5.62826 11.8815 5.62826 12.0605 5.55664 12.2363C5.48503 12.4121 5.37109 12.5391 5.21484 12.6172L3.35938 13.4375C4.10156 14.8568 5.16927 15.931 6.5625 16.6602L7.38281 14.7852C7.46094 14.6289 7.58789 14.515 7.76367 14.4434C7.93945 14.3717 8.11849 14.3717 8.30078 14.4434C8.48307 14.515 8.61003 14.6322 8.68164 14.7949C8.75325 14.9577 8.75 15.1237 8.67188 15.293L7.85156 17.1875C8.55469 17.3958 9.27083 17.5 10 17.5C10.7292 17.5 11.4453 17.3958 12.1484 17.1875L11.3281 15.293C11.25 15.1237 11.2467 14.9577 11.3184 14.7949C11.39 14.6322 11.5169 14.515 11.6992 14.4434C11.8815 14.3717 12.0605 14.3717 12.2363 14.4434C12.4121 14.515 12.5391 14.6289 12.6172 14.7852L13.4375 16.6602C14.8438 15.931 15.9115 14.8568 16.6406 13.4375L14.7852 12.5977C14.6159 12.5326 14.4954 12.4089 14.4238 12.2266C14.3522 12.0443 14.3522 11.8652 14.4238 11.6895C14.4954 11.5137 14.6159 11.3867 14.7852 11.3086C14.9544 11.2305 15.1172 11.2305 15.2734 11.3086L17.1875 12.1484C17.3958 11.4453 17.5 10.7292 17.5 10C17.5 9.27083 17.3958 8.55469 17.1875 7.85156L15.2734 8.69141ZM10 11.25C9.64844 11.25 9.35221 11.1296 9.11133 10.8887C8.87044 10.6478 8.75 10.3516 8.75 10C8.75 9.72656 8.83138 9.47917 8.99414 9.25781C9.1569 9.03646 9.36849 8.88672 9.62891 8.80859L14.375 5H14.6875C14.7786 5 14.8535 5.0293 14.9121 5.08789C14.9707 5.14648 15 5.22135 15 5.3125V5.625L11.1914 10.3711C11.1133 10.6315 10.9635 10.8431 10.7422 11.0059C10.5208 11.1686 10.2734 11.25 10 11.25Z" fill="white"/>
</svg>
