<svg width="57" height="57" viewBox="0 0 57 57" fill="none" xmlns="http://www.w3.org/2000/svg">
<g clip-path="url(#clip0)">
<path d="M38.6577 40.486C41.798 38.9389 44.1652 36.6262 45.7246 33.947C46.3653 32.8438 45.5794 31.4145 44.2884 31.4317C41.8295 31.4636 39.3943 30.9477 37.1596 29.9214C34.9249 28.8951 32.9467 27.3842 31.3685 25.4983C29.7853 23.6167 28.6408 21.4061 28.0182 19.0271C27.3956 16.6481 27.3104 14.1604 27.7688 11.7444C27.9971 10.4867 26.7516 9.44315 25.5518 9.90602C23.8168 10.535 22.1492 11.4775 20.6554 12.7309C12.9311 19.2124 12.5664 31.2235 20.4812 38.115C25.4595 42.4663 32.7353 43.4104 38.6577 40.486Z" fill="#415A6E"/>
</g>
<defs>
<clipPath id="clip0">
<rect width="40" height="40" fill="white" transform="translate(56.3533 30.6418) rotate(140)"/>
</clipPath>
</defs>
</svg>
