<svg width="36" height="37" viewBox="0 0 36 37" fill="none" xmlns="http://www.w3.org/2000/svg">
<path d="M22.485 16.9316L21.135 18.3116C20.055 19.3916 19.38 20.3066 19.38 22.5566H16.38V21.8066C16.38 20.1416 17.055 18.6416 18.135 17.5616L19.995 15.6716C20.55 15.1316 20.88 14.3816 20.88 13.5566C20.88 12.761 20.5639 11.9979 20.0013 11.4353C19.4387 10.8727 18.6757 10.5566 17.88 10.5566C17.0844 10.5566 16.3213 10.8727 15.7587 11.4353C15.1961 11.9979 14.88 12.761 14.88 13.5566H11.88C11.88 11.9653 12.5121 10.4392 13.6374 9.314C14.7626 8.18878 16.2887 7.55664 17.88 7.55664C19.4713 7.55664 20.9974 8.18878 22.1226 9.314C23.2479 10.4392 23.88 11.9653 23.88 13.5566C23.8778 14.8215 23.3765 16.0344 22.485 16.9316ZM19.38 28.5566H16.38V25.5566H19.38V28.5566ZM17.88 3.05664C15.9102 3.05664 13.9596 3.44463 12.1398 4.19845C10.3199 4.95227 8.66628 6.05716 7.2734 7.45004C4.46036 10.2631 2.88 14.0784 2.88 18.0566C2.88 22.0349 4.46036 25.8502 7.2734 28.6632C8.66628 30.0561 10.3199 31.161 12.1398 31.9148C13.9596 32.6687 15.9102 33.0566 17.88 33.0566C21.8583 33.0566 25.6736 31.4763 28.4866 28.6632C31.2997 25.8502 32.88 22.0349 32.88 18.0566C32.88 9.76164 26.13 3.05664 17.88 3.05664Z" fill="#415A6E"/>
</svg>
