<svg width="36" height="37" viewBox="0 0 36 37" fill="none" xmlns="http://www.w3.org/2000/svg">
<path d="M31.5 28.6766V30.1766H4.5V28.6766L7.5 25.6766V16.6766C7.5 12.0266 10.545 7.93164 15 6.61164V6.17664C15 5.38099 15.3161 4.61792 15.8787 4.05532C16.4413 3.49271 17.2044 3.17664 18 3.17664C18.7956 3.17664 19.5587 3.49271 20.1213 4.05532C20.6839 4.61792 21 5.38099 21 6.17664V6.61164C25.455 7.93164 28.5 12.0266 28.5 16.6766V25.6766L31.5 28.6766ZM21 31.6766C21 32.4723 20.6839 33.2353 20.1213 33.798C19.5587 34.3606 18.7956 34.6766 18 34.6766C17.2044 34.6766 16.4413 34.3606 15.8787 33.798C15.3161 33.2353 15 32.4723 15 31.6766" fill="#415A6E"/>
</svg>
