<svg width="50" height="50" viewBox="0 0 50 50" fill="none" xmlns="http://www.w3.org/2000/svg">
<path d="M30.5375 12.5687C30.5375 11.0918 29.9508 9.67539 28.9065 8.63105C27.8621 7.58671 26.4457 7 24.9688 7C23.4918 7 22.0754 7.58671 21.0311 8.63105C19.9867 9.67539 19.4 11.0918 19.4 12.5687C19.4 14.0457 19.9867 15.4621 21.0311 16.5065C22.0754 17.5508 23.4918 18.1375 24.9688 18.1375C26.4457 18.1375 27.8621 17.5508 28.9065 16.5065C29.9508 15.4621 30.5375 14.0457 30.5375 12.5687Z" fill="#A8B3BD"/>
<path d="M6.28998 29.5263H13.7625V22.0613L13.7825 21.6113C13.8475 20.8688 14.0775 20.1738 14.4325 19.5613H7.53998L7.24748 19.5788C6.63935 19.6504 6.07866 19.9428 5.67177 20.4003C5.26487 20.8579 5.04006 21.4489 5.03998 22.0613V28.2763C5.03998 28.6078 5.17167 28.9257 5.40609 29.1602C5.64051 29.3946 5.95846 29.5263 6.28998 29.5263Z" fill="#A8B3BD"/>
<path d="M44.975 28.2763C44.975 28.6078 44.8433 28.9257 44.6089 29.1602C44.3745 29.3946 44.0565 29.5263 43.725 29.5263H36.185V22.0613L36.17 21.6888C36.1154 20.9392 35.8915 20.2118 35.515 19.5613H42.475C43.0877 19.5614 43.6791 19.7866 44.1367 20.194C44.5943 20.6014 44.8864 21.1627 44.9575 21.7713L44.975 22.0613V28.2763Z" fill="#A8B3BD"/>
<path d="M33.6675 21.7713C33.5964 21.1623 33.3039 20.6006 32.8458 20.1932C32.3876 19.7857 31.7957 19.5608 31.1825 19.5613H18.7625L18.47 19.5788C17.8619 19.6504 17.3012 19.9428 16.8943 20.4003C16.4874 20.8579 16.2626 21.4489 16.2625 22.0613V29.5263H33.6825V22.0613L33.6675 21.7713Z" fill="#A8B3BD"/>
<path d="M37.4375 8.56873C38.7062 8.56873 39.923 9.07273 40.8201 9.96985C41.7172 10.867 42.2212 12.0837 42.2212 13.3525C42.2212 14.6212 41.7172 15.838 40.8201 16.7351C39.923 17.6322 38.7062 18.1362 37.4375 18.1362C36.1688 18.1362 34.952 17.6322 34.0549 16.7351C33.1577 15.838 32.6537 14.6212 32.6537 13.3525C32.6537 12.0837 33.1577 10.867 34.0549 9.96985C34.952 9.07273 36.1688 8.56873 37.4375 8.56873Z" fill="#A8B3BD"/>
<path d="M17.325 13.3513C17.325 12.0825 16.821 10.8658 15.9239 9.96863C15.0268 9.07151 13.81 8.5675 12.5413 8.5675C11.2725 8.5675 10.0558 9.07151 9.15864 9.96863C8.26151 10.8658 7.75751 12.0825 7.75751 13.3513C7.75751 14.6197 8.26138 15.8361 9.15827 16.733C10.0552 17.6299 11.2716 18.1338 12.54 18.1338C13.8084 18.1338 15.0249 17.6299 15.9217 16.733C16.8186 15.8361 17.3225 14.6197 17.3225 13.3513H17.325Z" fill="#A8B3BD"/>
<path d="M6.25 32.0262C5.91848 32.0262 5.60054 32.1579 5.36612 32.3924C5.1317 32.6268 5 32.9447 5 33.2762V35.7762C5 37.4338 5.65848 39.0236 6.83058 40.1957C8.00269 41.3678 9.5924 42.0262 11.25 42.0262H38.75C40.4076 42.0262 41.9973 41.3678 43.1694 40.1957C44.3415 39.0236 45 37.4338 45 35.7762V33.2762C45 32.9447 44.8683 32.6268 44.6339 32.3924C44.3995 32.1579 44.0815 32.0262 43.75 32.0262H6.25Z" fill="#A8B3BD"/>
</svg>
