<svg width="50" height="50" viewBox="0 0 50 50" fill="none" xmlns="http://www.w3.org/2000/svg">
<g clip-path="url(#clip0)">
<path fill-rule="evenodd" clip-rule="evenodd" d="M32.5313 0.749591L47.2531 9.41834C48.088 9.90363 48.781 10.5994 49.263 11.4361C49.745 12.2729 49.9991 13.2214 50 14.1871V29.8433C50 30.8112 49.7461 31.7622 49.2635 32.6012C48.7809 33.4402 48.0866 34.1379 47.25 34.6246L23.0219 48.7527L23.0156 48.7558C22.1736 49.2446 21.2173 49.502 20.2438 49.502C19.2702 49.502 18.3139 49.2446 17.4719 48.7558H17.4688L2.72813 40.1558C1.89707 39.6702 1.20784 38.9752 0.729158 38.1401C0.250476 37.305 -0.000931337 36.359 2.59255e-06 35.3965V19.6621C2.59255e-06 18.7121 0.243753 17.7933 0.687503 16.9902L0.700003 16.9746L0.731253 16.9152C1.2 16.0965 1.88438 15.3965 2.73125 14.9058L27.0031 0.746466C27.84 0.257733 28.7918 0.000183105 29.7609 0.000183105C30.7301 0.000183105 31.6819 0.257733 32.5188 0.746466L32.525 0.749591H32.5313ZM29.3656 4.79334C29.4851 4.72361 29.621 4.68686 29.7594 4.68686C29.8977 4.68686 30.0336 4.72361 30.1531 4.79334L43.0125 12.3621L20.6625 25.3246C20.5349 25.399 20.3899 25.4382 20.2422 25.4382C20.0945 25.4382 19.9495 25.399 19.8219 25.3246L6.95938 17.8621L29.3656 4.79334ZM23.0156 29.3808L27.2813 26.9058V40.8433L22.5938 43.5777V29.6027C22.7386 29.5349 22.8804 29.4609 23.0188 29.3808H23.0156ZM31.9656 38.1121V24.1902L36.7188 21.434V35.3402L31.9656 38.1121ZM41.4063 32.6058L44.8906 30.5746H44.8969C45.0236 30.5007 45.1286 30.3949 45.2016 30.2676C45.2745 30.1404 45.3128 29.9962 45.3125 29.8496V16.4496L41.4063 18.7152V32.6058ZM5.09063 36.1058L17.9031 43.584V29.6058C17.7561 29.5372 17.6123 29.4621 17.4719 29.3808L4.6875 21.9652V35.3965C4.6875 35.6933 4.84375 35.9621 5.09063 36.1058Z" fill="#A8B3BD"/>
</g>
<defs>
<clipPath id="clip0">
<rect width="50" height="50" fill="white"/>
</clipPath>
</defs>
</svg>
