<svg width="122" height="120" viewBox="0 0 122 120" fill="none" xmlns="http://www.w3.org/2000/svg">
<path d="M117.201 12.6886L92.3099 0.750505C90.9021 0.0705765 89.3167 -0.155027 87.7744 0.105079C86.232 0.365184 84.8093 1.09807 83.7041 2.20177L36.0282 45.5702L15.2511 29.8625C14.3154 29.1494 13.1582 28.7863 11.9815 28.8366C10.8047 28.8868 9.68295 29.3473 8.81188 30.1377L2.15714 36.184C1.637 36.6526 1.22089 37.2245 0.935515 37.8629C0.650136 38.5012 0.501796 39.1921 0.500016 39.891C0.498236 40.5899 0.643055 41.2814 0.925178 41.9212C1.2073 42.5611 1.62049 43.135 2.13823 43.6062L20.159 59.9999L2.13823 76.3936C1.62049 76.8648 1.2073 77.4387 0.925178 78.0786C0.643055 78.7184 0.498236 79.4099 0.500016 80.1088C0.501796 80.8077 0.650136 81.4986 0.935515 82.1369C1.22089 82.7753 1.637 83.3472 2.15714 83.8158L8.81188 89.8621C9.68295 90.6525 10.8047 91.113 11.9815 91.1632C13.1582 91.2135 14.3154 90.8504 15.2511 90.1373L36.0282 74.4108L83.7268 117.798C84.828 118.902 86.2476 119.635 87.7871 119.895C89.3266 120.155 90.9091 119.929 92.3137 119.249L117.227 107.292C118.51 106.678 119.592 105.714 120.349 104.512C121.105 103.31 121.504 101.919 121.5 100.5V19.4737C121.5 16.5863 119.825 13.9363 117.208 12.6811L117.201 12.6886ZM91.2625 87.393L55.0661 60.0037L91.2625 32.6143V87.393Z" fill="#578CB5"/>
</svg>
