<svg width="50" height="50" viewBox="0 0 50 50" fill="none" xmlns="http://www.w3.org/2000/svg">
<path d="M29.0053 45.6667H21.4219C20.9468 45.6667 20.4859 45.5044 20.1157 45.2066C19.7455 44.9087 19.4882 44.4933 19.3865 44.0292L18.5386 40.1042C17.4075 39.6085 16.3349 38.9888 15.3407 38.2562L11.5136 39.475C11.0606 39.6195 10.5718 39.6046 10.1284 39.4329C9.68502 39.2613 9.31369 38.9431 9.07609 38.5312L5.27609 31.9667C5.04097 31.5544 4.95272 31.0746 5.02576 30.6057C5.0988 30.1368 5.32881 29.7066 5.67817 29.3854L8.64692 26.6771C8.51191 25.4502 8.51191 24.2123 8.64692 22.9854L5.67817 20.2833C5.32832 19.962 5.09799 19.5314 5.02494 19.062C4.95188 18.5927 5.04044 18.1124 5.27609 17.7L9.06775 11.1312C9.30536 10.7194 9.67669 10.4012 10.1201 10.2296C10.5635 10.0579 11.0523 10.043 11.5053 10.1875L15.3323 11.4062C15.8407 11.0312 16.3698 10.6812 16.9157 10.3646C17.4428 10.0687 17.9844 9.8 18.5386 9.56042L19.3886 5.63958C19.4898 5.17541 19.7466 4.75977 20.1164 4.46156C20.4862 4.16335 20.9468 4.0005 21.4219 4H29.0053C29.4803 4.0005 29.941 4.16335 30.3108 4.46156C30.6806 4.75977 30.9374 5.17541 31.0386 5.63958L31.8969 9.5625C32.4803 9.82083 33.0511 10.1104 33.6032 10.4333C34.1178 10.7312 34.6157 11.0583 35.0948 11.4104L38.924 10.1917C39.3767 10.0477 39.865 10.0629 40.308 10.2345C40.7509 10.4061 41.1219 10.724 41.3594 11.1354L45.1511 17.7042C45.6344 18.5521 45.4678 19.625 44.749 20.2854L41.7803 22.9937C41.9153 24.2206 41.9153 25.4586 41.7803 26.6854L44.749 29.3937C45.4678 30.0562 45.6344 31.1271 45.1511 31.975L41.3594 38.5437C41.1218 38.9556 40.7505 39.2738 40.3071 39.4454C39.8637 39.6171 39.3749 39.632 38.9219 39.4875L35.0948 38.2687C34.1014 39.0007 33.0295 39.6198 31.899 40.1146L31.0386 44.0292C30.937 44.493 30.68 44.9081 30.3102 45.2059C29.9404 45.5037 29.48 45.6663 29.0053 45.6667ZM25.2053 16.5C22.9951 16.5 20.8755 17.378 19.3127 18.9408C17.7499 20.5036 16.8719 22.6232 16.8719 24.8333C16.8719 27.0435 17.7499 29.1631 19.3127 30.7259C20.8755 32.2887 22.9951 33.1667 25.2053 33.1667C27.4154 33.1667 29.535 32.2887 31.0978 30.7259C32.6606 29.1631 33.5386 27.0435 33.5386 24.8333C33.5386 22.6232 32.6606 20.5036 31.0978 18.9408C29.535 17.378 27.4154 16.5 25.2053 16.5Z" fill="#A8B3BD"/>
</svg>
