<svg width="117" height="24" viewBox="0 0 117 24" fill="none" xmlns="http://www.w3.org/2000/svg">
<path d="M23.067 19.4733L13.807 2.43332C13.6226 2.09372 13.3501 1.81017 13.018 1.61258C12.6859 1.41499 12.3067 1.3107 11.9203 1.3107C11.5339 1.3107 11.1546 1.41499 10.8226 1.61258C10.4905 1.81017 10.218 2.09372 10.0336 2.43332L0.780288 19.4733C0.597304 19.801 0.50341 20.1709 0.507971 20.5461C0.512532 20.9214 0.615387 21.2889 0.80628 21.612C0.997173 21.9351 1.26943 22.2025 1.59591 22.3875C1.92239 22.5726 2.29168 22.6688 2.66696 22.6667H21.1803C21.5517 22.6663 21.9167 22.5695 22.2396 22.3858C22.5625 22.2022 22.8321 21.9378 23.0223 21.6187C23.2124 21.2996 23.3165 20.9366 23.3243 20.5653C23.3321 20.1939 23.2435 19.8268 23.067 19.5V19.4733ZM11.067 6.66666C11.067 6.41912 11.1653 6.18172 11.3403 6.00669C11.5154 5.83166 11.7528 5.73332 12.0003 5.73332C12.2478 5.73332 12.4852 5.83166 12.6603 6.00669C12.8353 6.18172 12.9336 6.41912 12.9336 6.66666V14.6667C12.9336 14.9142 12.8353 15.1516 12.6603 15.3266C12.4852 15.5017 12.2478 15.6 12.0003 15.6C11.7528 15.6 11.5154 15.5017 11.3403 15.3266C11.1653 15.1516 11.067 14.9142 11.067 14.6667V6.66666ZM12.0003 19.9C11.763 19.9 11.5309 19.8296 11.3336 19.6978C11.1363 19.5659 10.9825 19.3785 10.8916 19.1592C10.8008 18.9399 10.777 18.6987 10.8233 18.4659C10.8696 18.2331 10.9839 18.0193 11.1518 17.8515C11.3196 17.6836 11.5334 17.5693 11.7662 17.523C11.999 17.4767 12.2402 17.5005 12.4595 17.5913C12.6788 17.6822 12.8662 17.836 12.9981 18.0333C13.1299 18.2306 13.2003 18.4627 13.2003 18.7C13.2003 18.8576 13.1692 19.0136 13.1089 19.1592C13.0486 19.3048 12.9602 19.4371 12.8488 19.5485C12.7374 19.6599 12.6051 19.7483 12.4595 19.8086C12.3139 19.869 12.1579 19.9 12.0003 19.9V19.9Z" fill="#F8BC63"/>
<path d="M35.9773 7.77273H34.9375V14.642H34.8523L30.0795 7.77273H29.0568V16.5H30.1136V9.64773H30.1989L34.9545 16.5H35.9773V7.77273ZM40.6147 16.6364C42.3874 16.6364 43.5806 15.2898 43.5806 13.2614C43.5806 11.2159 42.3874 9.86932 40.6147 9.86932C38.842 9.86932 37.6488 11.2159 37.6488 13.2614C37.6488 15.2898 38.842 16.6364 40.6147 16.6364ZM40.6147 15.733C39.2681 15.733 38.6545 14.5739 38.6545 13.2614C38.6545 11.9489 39.2681 10.7727 40.6147 10.7727C41.9613 10.7727 42.5749 11.9489 42.5749 13.2614C42.5749 14.5739 41.9613 15.733 40.6147 15.733ZM47.9624 9.95455H46.5646V8.38636H45.5589V9.95455H44.5703V10.8068H45.5589V14.8977C45.5589 16.0398 46.4794 16.5852 47.3317 16.5852C47.7067 16.5852 47.9453 16.517 48.0817 16.4659L47.8771 15.5625C47.7919 15.5795 47.6555 15.6136 47.4339 15.6136C46.9908 15.6136 46.5646 15.4773 46.5646 14.625V10.8068H47.9624V9.95455ZM53.4979 18.9545C54.4055 18.9545 55.0447 18.473 55.424 17.4545L58.2109 9.97159L57.1115 9.95455L55.3047 15.1705H55.2365L53.4297 9.95455H52.3388L54.7592 16.5341L54.5717 17.0455C54.2053 18.0426 53.7536 18.1364 53.0206 17.9489L52.7649 18.8352C52.8672 18.8864 53.157 18.9545 53.4979 18.9545ZM62.0515 16.6364C63.381 16.6364 64.3526 15.9716 64.6594 14.983L63.6879 14.7102C63.4322 15.392 62.8398 15.733 62.0515 15.733C60.8711 15.733 60.0572 14.9702 60.0103 13.5682H64.7617V13.142C64.7617 10.7045 63.3129 9.86932 61.9492 9.86932C60.1765 9.86932 59.0004 11.267 59.0004 13.2784C59.0004 15.2898 60.1594 16.6364 62.0515 16.6364ZM60.0103 12.6989C60.0785 11.6804 60.7987 10.7727 61.9492 10.7727C63.0401 10.7727 63.739 11.5909 63.739 12.6989H60.0103ZM69.1381 9.95455H67.7404V8.38636H66.7347V9.95455H65.7461V10.8068H66.7347V14.8977C66.7347 16.0398 67.6552 16.5852 68.5075 16.5852C68.8825 16.5852 69.1211 16.517 69.2575 16.4659L69.0529 15.5625C68.9677 15.5795 68.8313 15.6136 68.6097 15.6136C68.1665 15.6136 67.7404 15.4773 67.7404 14.625V10.8068H69.1381V9.95455ZM76.685 16.6364C78.4577 16.6364 79.6509 15.2898 79.6509 13.2614C79.6509 11.2159 78.4577 9.86932 76.685 9.86932C74.9123 9.86932 73.7191 11.2159 73.7191 13.2614C73.7191 15.2898 74.9123 16.6364 76.685 16.6364ZM76.685 15.733C75.3384 15.733 74.7248 14.5739 74.7248 13.2614C74.7248 11.9489 75.3384 10.7727 76.685 10.7727C78.0316 10.7727 78.6452 11.9489 78.6452 13.2614C78.6452 14.5739 78.0316 15.733 76.685 15.733ZM81.1861 18.9545H82.1918V15.4943H82.277C82.4986 15.8523 82.9247 16.6364 84.1861 16.6364C85.8224 16.6364 86.9645 15.3239 86.9645 13.2443C86.9645 11.1818 85.8224 9.86932 84.169 9.86932C82.8906 9.86932 82.4986 10.6534 82.277 10.9943H82.1577V9.95455H81.1861V18.9545ZM82.1747 13.2273C82.1747 11.7614 82.8224 10.7727 84.0497 10.7727C85.3281 10.7727 85.9588 11.8466 85.9588 13.2273C85.9588 14.625 85.3111 15.733 84.0497 15.733C82.8395 15.733 82.1747 14.7102 82.1747 13.2273ZM91.2429 16.6364C92.5724 16.6364 93.544 15.9716 93.8509 14.983L92.8793 14.7102C92.6236 15.392 92.0312 15.733 91.2429 15.733C90.0625 15.733 89.2486 14.9702 89.2017 13.5682H93.9531V13.142C93.9531 10.7045 92.5043 9.86932 91.1406 9.86932C89.3679 9.86932 88.1918 11.267 88.1918 13.2784C88.1918 15.2898 89.3509 16.6364 91.2429 16.6364ZM89.2017 12.6989C89.2699 11.6804 89.9901 10.7727 91.1406 10.7727C92.2315 10.7727 92.9304 11.5909 92.9304 12.6989H89.2017ZM96.4886 12.5625C96.4886 11.4205 97.196 10.7727 98.1591 10.7727C99.0923 10.7727 99.6591 11.3821 99.6591 12.4091V16.5H100.665V12.3409C100.665 10.6705 99.7741 9.86932 98.4489 9.86932C97.4602 9.86932 96.8466 10.3125 96.5398 10.9773H96.4545V9.95455H95.483V16.5H96.4886V12.5625ZM105.247 16.6364C106.576 16.6364 107.548 15.9716 107.855 14.983L106.883 14.7102C106.627 15.392 106.035 15.733 105.247 15.733C104.066 15.733 103.252 14.9702 103.206 13.5682H107.957V13.142C107.957 10.7045 106.508 9.86932 105.145 9.86932C103.372 9.86932 102.196 11.267 102.196 13.2784C102.196 15.2898 103.355 16.6364 105.247 16.6364ZM103.206 12.6989C103.274 11.6804 103.994 10.7727 105.145 10.7727C106.235 10.7727 106.934 11.5909 106.934 12.6989H103.206ZM111.958 16.6364C113.22 16.6364 113.646 15.8523 113.868 15.4943H113.987V16.5H114.958V7.77273H113.953V10.9943H113.868C113.646 10.6534 113.254 9.86932 111.975 9.86932C110.322 9.86932 109.18 11.1818 109.18 13.2443C109.18 15.3239 110.322 16.6364 111.958 16.6364ZM112.095 15.733C110.833 15.733 110.186 14.625 110.186 13.2273C110.186 11.8466 110.816 10.7727 112.095 10.7727C113.322 10.7727 113.97 11.7614 113.97 13.2273C113.97 14.7102 113.305 15.733 112.095 15.733Z" fill="#F8BC63"/>
</svg>
